<?xml version="1.0" encoding="UTF-8"?>
<svg width="253px" height="157px" viewBox="0 0 253 157" version="1.1" xmlns="http://www.w3.org/2000/svg" xmlns:xlink="http://www.w3.org/1999/xlink">
    <!-- Generator: Sketch 50.2 (55047) - http://www.bohemiancoding.com/sketch -->
    <title>Group</title>
    <desc>Created with Sketch.</desc>
    <defs></defs>
    <g id="Page-1" stroke="none" stroke-width="1" fill="none" fill-rule="evenodd">
        <g id="Group">
            <path d="M225.194,27.331 L146.955,27.331 L113.177,65.36 L113.177,65.361 L105.22,74.319 L28.015,74.319 L47.391,51.881 L11.817,51.881 C5.318,51.881 0,57.334 0,63.998 L0,89.565 C0,96.23 5.318,101.683 11.817,101.683 L148.01,101.683 C154.509,101.683 163.387,97.633 167.739,92.683 L225.194,27.331" id="Fill-2" fill="#004C81"></path>
            <path d="M240.914,0 C247.413,0 252.731,5.453 252.731,12.118 L252.731,37.684 C252.731,44.348 247.413,49.802 240.914,49.802 L205.456,49.802 L213.364,40.798 C213.364,40.798 213.364,40.798 213.365,40.798 L225.194,27.331 L146.956,27.331 L105.221,74.353 L27.537,74.353 L85.356,8.976 C89.723,4.039 98.613,0 105.112,0 L240.914,0" id="Fill-3" fill="#FFDA1A"></path>
            <path d="M26.631,145.145 C26.631,143.476 26.237,142.031 25.451,140.811 C24.664,139.591 23.629,138.66 22.345,138.018 C23.629,137.376 24.624,136.428 25.331,135.176 C26.037,133.924 26.39,132.512 26.39,130.939 L26.39,130.072 C26.39,128.145 26.021,126.54 25.283,125.256 C24.544,123.972 23.508,122.944 22.176,122.174 C20.844,121.403 19.246,120.85 17.385,120.512 C15.522,120.175 13.452,120.007 11.172,120.007 C10.402,120.007 9.599,120.023 8.765,120.055 C7.929,120.087 7.119,120.127 6.333,120.175 C5.546,120.223 4.823,120.28 4.166,120.344 C3.507,120.409 2.969,120.473 2.552,120.536 C1.621,120.698 0.963,120.986 0.578,121.403 C0.193,121.821 0,122.576 0,123.667 L0,152.947 C0,154.038 0.2,154.793 0.602,155.21 C1.003,155.628 1.685,155.916 2.649,156.077 C3.13,156.173 3.708,156.253 4.382,156.318 C5.056,156.382 5.786,156.438 6.573,156.486 C7.36,156.534 8.17,156.574 9.005,156.607 C9.84,156.638 10.658,156.655 11.461,156.655 C13.548,156.655 15.514,156.494 17.361,156.173 C19.206,155.853 20.811,155.282 22.176,154.463 C23.541,153.645 24.624,152.537 25.427,151.141 C26.229,149.744 26.631,147.986 26.631,145.867 L26.631,145.145 Z M18.444,131.324 C18.444,131.838 18.364,132.328 18.203,132.793 C18.042,133.258 17.778,133.659 17.409,133.997 C17.039,134.334 16.542,134.607 15.916,134.815 C15.29,135.024 14.495,135.128 13.532,135.128 L8.139,135.128 L8.139,126.797 C8.299,126.797 8.548,126.789 8.885,126.773 C9.222,126.757 9.575,126.749 9.944,126.749 L11.798,126.749 C14.27,126.749 15.996,127.062 16.975,127.688 C17.954,128.314 18.444,129.285 18.444,130.601 L18.444,131.324 Z M18.637,145.675 C18.637,147.023 18.163,148.067 17.216,148.805 C16.269,149.544 14.559,149.913 12.087,149.913 L11.293,149.913 C10.923,149.913 10.538,149.905 10.137,149.889 C9.735,149.873 9.35,149.864 8.981,149.864 L8.139,149.864 L8.139,140.859 L13.532,140.859 C15.458,140.859 16.79,141.285 17.529,142.135 C18.267,142.986 18.637,143.989 18.637,145.145 L18.637,145.675 Z M53.021,138.066 C53.021,136.301 52.756,134.799 52.226,133.563 C51.697,132.328 50.95,131.316 49.987,130.529 C49.024,129.743 47.844,129.165 46.447,128.796 C45.051,128.427 43.486,128.242 41.752,128.242 C40.146,128.242 38.581,128.355 37.057,128.579 C35.531,128.804 34.319,129.029 33.421,129.253 C32.811,129.414 32.506,129.767 32.506,130.312 L32.506,134.213 C32.506,134.535 32.586,134.76 32.747,134.887 C32.907,135.016 33.115,135.08 33.373,135.08 L33.613,135.08 C33.999,135.048 34.48,135.008 35.058,134.96 C35.636,134.912 36.286,134.872 37.009,134.839 C37.731,134.808 38.485,134.784 39.272,134.767 C40.058,134.751 40.837,134.743 41.608,134.743 C42.731,134.743 43.614,134.952 44.256,135.369 C44.898,135.787 45.219,136.686 45.219,138.066 L45.219,139.8 L42.619,139.8 C38.477,139.8 35.467,140.45 33.589,141.75 C31.711,143.05 30.772,145.113 30.772,147.938 L30.772,148.372 C30.772,149.945 31.005,151.261 31.47,152.32 C31.935,153.38 32.554,154.231 33.324,154.873 C34.095,155.515 34.969,155.973 35.949,156.245 C36.928,156.518 37.948,156.655 39.007,156.655 C40.452,156.655 41.696,156.462 42.739,156.077 C43.782,155.692 44.769,155.162 45.701,154.488 L45.701,155.258 C45.701,155.515 45.797,155.74 45.99,155.932 C46.183,156.125 46.407,156.221 46.664,156.221 L52.058,156.221 C52.314,156.221 52.539,156.125 52.732,155.932 C52.925,155.74 53.021,155.515 53.021,155.258 L53.021,138.066 Z M45.364,149.72 C44.786,150.009 44.167,150.258 43.51,150.466 C42.851,150.676 42.153,150.779 41.415,150.779 C40.387,150.779 39.625,150.635 39.127,150.346 C38.629,150.057 38.381,149.399 38.381,148.372 L38.381,147.938 C38.381,147.36 38.445,146.847 38.574,146.397 C38.702,145.948 38.927,145.578 39.248,145.289 C39.568,145.001 40.002,144.784 40.548,144.639 C41.094,144.495 41.784,144.423 42.619,144.423 L45.364,144.423 L45.364,149.72 Z M82.493,155.21 L82.493,139.173 C82.493,137.665 82.373,136.244 82.132,134.912 C81.891,133.58 81.458,132.424 80.832,131.444 C80.206,130.465 79.339,129.686 78.231,129.109 C77.124,128.531 75.703,128.242 73.969,128.242 C72.428,128.242 71.063,128.428 69.876,128.8 C68.688,129.172 67.436,129.827 66.12,130.765 L66.12,129.598 C66.12,129.34 66.023,129.113 65.831,128.919 C65.638,128.725 65.413,128.627 65.156,128.627 L59.763,128.627 C59.505,128.627 59.281,128.723 59.089,128.916 C58.896,129.109 58.8,129.334 58.8,129.59 L58.8,155.21 C58.8,155.467 58.903,155.7 59.113,155.908 C59.321,156.117 59.554,156.221 59.811,156.221 L65.638,156.221 C65.895,156.221 66.12,156.117 66.312,155.909 C66.505,155.701 66.601,155.469 66.601,155.212 L66.601,136.28 C67.436,135.832 68.222,135.464 68.961,135.176 C69.699,134.887 70.421,134.743 71.128,134.743 C71.866,134.743 72.468,134.815 72.934,134.96 C73.399,135.104 73.76,135.352 74.017,135.705 C74.274,136.057 74.451,136.521 74.547,137.097 C74.643,137.674 74.692,138.379 74.692,139.212 L74.692,155.212 C74.692,155.469 74.788,155.701 74.981,155.909 C75.173,156.117 75.397,156.221 75.655,156.221 L81.482,156.221 C81.738,156.221 81.971,156.117 82.18,155.908 C82.389,155.7 82.493,155.467 82.493,155.21 Z M106.187,154.825 L106.187,150.539 C106.187,150.282 106.098,150.081 105.922,149.937 C105.745,149.792 105.528,149.72 105.272,149.72 L105.175,149.72 C104.276,149.816 103.418,149.897 102.599,149.961 C101.78,150.025 100.68,150.057 99.3,150.057 C98.754,150.057 98.241,149.969 97.759,149.792 C97.277,149.616 96.86,149.311 96.507,148.877 C96.153,148.444 95.873,147.866 95.664,147.144 C95.455,146.421 95.351,145.53 95.351,144.471 L95.351,140.426 C95.351,139.366 95.455,138.475 95.664,137.753 C95.873,137.03 96.153,136.453 96.507,136.019 C96.86,135.586 97.277,135.281 97.759,135.104 C98.241,134.928 98.754,134.839 99.3,134.839 C100.68,134.839 101.78,134.872 102.599,134.936 C103.418,135 104.276,135.08 105.175,135.176 L105.272,135.176 C105.528,135.176 105.745,135.104 105.922,134.96 C106.098,134.815 106.187,134.615 106.187,134.358 L106.187,130.072 C106.187,129.719 106.106,129.47 105.946,129.325 C105.785,129.181 105.528,129.06 105.175,128.964 C104.501,128.804 103.626,128.644 102.551,128.482 C101.475,128.322 100.215,128.242 98.77,128.242 C95.367,128.242 92.646,129.285 90.608,131.372 C88.569,133.459 87.55,136.477 87.55,140.426 L87.55,144.471 C87.55,148.42 88.569,151.438 90.608,153.524 C92.646,155.612 95.367,156.655 98.77,156.655 C100.215,156.655 101.475,156.574 102.551,156.414 C103.626,156.253 104.501,156.093 105.175,155.932 C105.528,155.836 105.785,155.716 105.946,155.571 C106.106,155.427 106.187,155.178 106.187,154.825 Z M132.915,140.763 C132.915,138.836 132.649,137.103 132.118,135.562 C131.587,134.021 130.815,132.713 129.802,131.637 C128.789,130.562 127.534,129.727 126.039,129.133 C124.543,128.539 122.813,128.242 120.851,128.242 C118.889,128.242 117.16,128.539 115.664,129.133 C114.168,129.727 112.905,130.562 111.876,131.637 C110.846,132.713 110.066,134.021 109.536,135.562 C109.004,137.103 108.739,138.836 108.739,140.763 L108.739,144.134 C108.739,146.06 109.004,147.794 109.536,149.335 C110.066,150.876 110.846,152.184 111.876,153.26 C112.905,154.336 114.168,155.17 115.664,155.764 C117.16,156.357 118.889,156.655 120.851,156.655 C122.813,156.655 124.543,156.357 126.039,155.764 C127.534,155.17 128.789,154.336 129.802,153.26 C130.815,152.184 131.587,150.876 132.118,149.335 C132.649,147.794 132.915,146.06 132.915,144.134 L132.915,140.763 Z M125.113,144.134 C125.113,148.083 123.692,150.057 120.851,150.057 C119.446,150.057 118.377,149.56 117.643,148.564 C116.908,147.569 116.541,146.092 116.541,144.134 L116.541,140.763 C116.541,138.805 116.908,137.336 117.643,136.356 C118.377,135.377 119.446,134.887 120.851,134.887 C123.692,134.887 125.113,136.846 125.113,140.763 L125.113,144.134 Z M161.568,155.21 L161.568,139.173 C161.568,137.665 161.447,136.244 161.207,134.912 C160.966,133.58 160.532,132.424 159.906,131.444 C159.28,130.465 158.413,129.686 157.306,129.109 C156.198,128.531 154.778,128.242 153.044,128.242 C151.503,128.242 150.138,128.428 148.95,128.8 C147.762,129.172 146.51,129.827 145.194,130.765 L145.194,129.598 C145.194,129.34 145.098,129.113 144.905,128.919 C144.713,128.725 144.488,128.627 144.231,128.627 L138.837,128.627 C138.58,128.627 138.356,128.723 138.163,128.916 C137.971,129.109 137.874,129.334 137.874,129.59 L137.874,155.21 C137.874,155.467 137.978,155.7 138.187,155.908 C138.396,156.117 138.628,156.221 138.886,156.221 L144.713,156.221 C144.969,156.221 145.194,156.117 145.387,155.909 C145.579,155.701 145.676,155.469 145.676,155.212 L145.676,136.28 C146.51,135.832 147.297,135.464 148.035,135.176 C148.774,134.887 149.496,134.743 150.203,134.743 C150.941,134.743 151.543,134.815 152.008,134.96 C152.473,135.104 152.835,135.352 153.092,135.705 C153.349,136.057 153.525,136.521 153.622,137.097 C153.718,137.674 153.766,138.379 153.766,139.212 L153.766,155.212 C153.766,155.469 153.863,155.701 154.055,155.909 C154.248,156.117 154.472,156.221 154.729,156.221 L160.556,156.221 C160.813,156.221 161.046,156.117 161.255,155.908 C161.463,155.7 161.568,155.467 161.568,155.21 Z M182.565,155.318 L182.565,151.591 C182.565,151.05 182.228,150.779 181.554,150.779 L179.194,150.779 C178.455,150.779 178.006,150.643 177.846,150.37 C177.685,150.098 177.605,149.479 177.605,148.516 L177.605,134.502 L181.554,134.502 C181.81,134.502 182.035,134.405 182.228,134.211 C182.421,134.017 182.517,133.79 182.517,133.531 L182.517,129.598 C182.517,129.34 182.421,129.112 182.228,128.918 C182.035,128.724 181.81,128.627 181.554,128.627 L177.605,128.627 L177.605,123.522 C177.605,123.266 177.525,123.065 177.366,122.92 C177.206,122.776 176.998,122.704 176.743,122.704 L176.6,122.704 L170.761,123.715 C170.505,123.78 170.281,123.892 170.09,124.052 C169.899,124.213 169.803,124.421 169.803,124.678 L169.803,128.627 L165.951,128.627 C165.693,128.627 165.461,128.732 165.252,128.94 C165.043,129.149 164.939,129.382 164.939,129.638 L164.939,132.817 C164.939,133.074 165.043,133.291 165.252,133.467 C165.461,133.644 165.693,133.764 165.951,133.828 L169.803,134.454 L169.803,148.42 C169.803,150.122 169.979,151.51 170.329,152.585 C170.68,153.661 171.191,154.504 171.861,155.114 C172.531,155.724 173.369,156.133 174.374,156.342 C175.379,156.55 176.536,156.655 177.846,156.655 C178.551,156.655 179.178,156.622 179.724,156.559 C180.269,156.495 180.911,156.4 181.65,156.272 C182.26,156.178 182.565,155.859 182.565,155.318 Z M208.281,138.066 C208.281,136.301 208.016,134.799 207.486,133.563 C206.956,132.328 206.21,131.316 205.247,130.529 C204.284,129.743 203.104,129.165 201.707,128.796 C200.311,128.427 198.746,128.242 197.012,128.242 C195.406,128.242 193.841,128.355 192.317,128.579 C190.791,128.804 189.579,129.029 188.681,129.253 C188.07,129.414 187.766,129.767 187.766,130.312 L187.766,134.213 C187.766,134.535 187.845,134.76 188.006,134.887 C188.167,135.016 188.375,135.08 188.632,135.08 L188.873,135.08 C189.259,135.048 189.74,135.008 190.318,134.96 C190.896,134.912 191.546,134.872 192.268,134.839 C192.991,134.808 193.745,134.784 194.532,134.767 C195.318,134.751 196.097,134.743 196.867,134.743 C197.991,134.743 198.874,134.952 199.516,135.369 C200.158,135.787 200.479,136.686 200.479,138.066 L200.479,139.8 L197.879,139.8 C193.737,139.8 190.727,140.45 188.849,141.75 C186.971,143.05 186.032,145.113 186.032,147.938 L186.032,148.372 C186.032,149.945 186.264,151.261 186.73,152.32 C187.195,153.38 187.814,154.231 188.584,154.873 C189.355,155.515 190.229,155.973 191.209,156.245 C192.188,156.518 193.207,156.655 194.267,156.655 C195.712,156.655 196.955,156.462 197.999,156.077 C199.042,155.692 200.029,155.162 200.961,154.488 L200.961,155.258 C200.961,155.515 201.057,155.74 201.25,155.932 C201.442,156.125 201.667,156.221 201.924,156.221 L207.318,156.221 C207.574,156.221 207.799,156.125 207.992,155.932 C208.184,155.74 208.281,155.515 208.281,155.258 L208.281,138.066 Z M200.624,149.72 C200.046,150.009 199.427,150.258 198.77,150.466 C198.111,150.676 197.413,150.779 196.675,150.779 C195.647,150.779 194.885,150.635 194.387,150.346 C193.889,150.057 193.641,149.399 193.641,148.372 L193.641,147.938 C193.641,147.36 193.705,146.847 193.834,146.397 C193.961,145.948 194.186,145.578 194.508,145.289 C194.828,145.001 195.262,144.784 195.808,144.639 C196.354,144.495 197.044,144.423 197.879,144.423 L200.624,144.423 L200.624,149.72 Z M231.974,154.825 L231.974,150.539 C231.974,150.282 231.885,150.081 231.709,149.937 C231.532,149.792 231.316,149.72 231.059,149.72 L230.963,149.72 C230.064,149.816 229.205,149.897 228.386,149.961 C227.568,150.025 226.468,150.057 225.088,150.057 C224.541,150.057 224.028,149.969 223.547,149.792 C223.065,149.616 222.647,149.311 222.294,148.877 C221.941,148.444 221.66,147.866 221.452,147.144 C221.242,146.421 221.139,145.53 221.139,144.471 L221.139,140.426 C221.139,139.366 221.242,138.475 221.452,137.753 C221.66,137.03 221.941,136.453 222.294,136.019 C222.647,135.586 223.065,135.281 223.547,135.104 C224.028,134.928 224.541,134.839 225.088,134.839 C226.468,134.839 227.568,134.872 228.386,134.936 C229.205,135 230.064,135.08 230.963,135.176 L231.059,135.176 C231.316,135.176 231.532,135.104 231.709,134.96 C231.885,134.815 231.974,134.615 231.974,134.358 L231.974,130.072 C231.974,129.719 231.894,129.47 231.733,129.325 C231.572,129.181 231.316,129.06 230.963,128.964 C230.289,128.804 229.413,128.644 228.338,128.482 C227.262,128.322 226.003,128.242 224.558,128.242 C221.154,128.242 218.434,129.285 216.395,131.372 C214.356,133.459 213.337,136.477 213.337,140.426 L213.337,144.471 C213.337,148.42 214.356,151.438 216.395,153.524 C218.434,155.612 221.154,156.655 224.558,156.655 C226.003,156.655 227.262,156.574 228.338,156.414 C229.413,156.253 230.289,156.093 230.963,155.932 C231.316,155.836 231.572,155.716 231.733,155.571 C231.894,155.427 231.974,155.178 231.974,154.825 Z M252.73,155.318 L252.73,151.591 C252.73,151.05 252.393,150.779 251.719,150.779 L249.359,150.779 C248.62,150.779 248.171,150.643 248.011,150.37 C247.85,150.098 247.77,149.479 247.77,148.516 L247.77,134.502 L251.719,134.502 C251.975,134.502 252.2,134.405 252.393,134.211 C252.585,134.017 252.682,133.79 252.682,133.531 L252.682,129.598 C252.682,129.34 252.585,129.112 252.393,128.918 C252.2,128.724 251.975,128.627 251.719,128.627 L247.77,128.627 L247.77,123.522 C247.77,123.266 247.69,123.065 247.53,122.92 C247.371,122.776 247.163,122.704 246.908,122.704 L246.764,122.704 L240.925,123.715 C240.669,123.78 240.446,123.892 240.255,124.052 C240.064,124.213 239.968,124.421 239.968,124.678 L239.968,128.627 L236.116,128.627 C235.858,128.627 235.626,128.732 235.417,128.94 C235.208,129.149 235.104,129.382 235.104,129.638 L235.104,132.817 C235.104,133.074 235.208,133.291 235.417,133.467 C235.626,133.644 235.858,133.764 236.116,133.828 L239.968,134.454 L239.968,148.42 C239.968,150.122 240.144,151.51 240.494,152.585 C240.845,153.661 241.356,154.504 242.026,155.114 C242.696,155.724 243.533,156.133 244.539,156.342 C245.544,156.55 246.701,156.655 248.011,156.655 C248.716,156.655 249.342,156.622 249.889,156.559 C250.434,156.495 251.076,156.4 251.815,156.272 C252.424,156.178 252.73,155.859 252.73,155.318 Z" id="Fill-4" fill="#004C81"></path>
        </g>
    </g>
</svg>