<?xml version="1.0" encoding="UTF-8"?>
<svg width="605px" height="527px" viewBox="0 0 605 527" version="1.1" xmlns="http://www.w3.org/2000/svg" xmlns:xlink="http://www.w3.org/1999/xlink">
    <!-- Generator: Sketch 50.2 (55047) - http://www.bohemiancoding.com/sketch -->
    <title>ideal</title>
    <desc>Created with Sketch.</desc>
    <defs>
        <polygon id="path-1" points="0 0.024 604.396 0.024 604.396 526.94 0 526.94"></polygon>
        <polygon id="path-3" points="0 0.024 604.396 0.024 604.396 526.94 0 526.94"></polygon>
        <polygon id="path-5" points="0 0.024 604.396 0.024 604.396 526.94 0 526.94"></polygon>
    </defs>
    <g id="Page-1" stroke="none" stroke-width="1" fill="none" fill-rule="evenodd">
        <g id="ideal">
            <g id="Group-5">
                <g id="Fill-4-Clipped-Copy">
                    <mask id="mask-2" fill="white">
                        <use xlink:href="#path-1"></use>
                    </mask>
                    <g id="path-1"></g>
                    <path d="M340.909,35.024 C408.253,35.024 464.38,53.27 503.223,87.79 C547.132,126.812 569.396,185.933 569.396,263.512 C569.396,417.26 494.657,492 340.909,492 C328.96,492 65.726,492 35,492 C35,460.646 35,66.377 35,35.024 C65.726,35.024 328.96,35.024 340.909,35.024 Z" id="Fill-4" fill="#FFFFFF" fill-rule="nonzero" mask="url(#mask-2)"></path>
                </g>
                <g id="Fill-4-Clipped">
                    <mask id="mask-4" fill="white">
                        <use xlink:href="#path-3"></use>
                    </mask>
                    <g id="path-1"></g>
                    <path d="M340.909,35.024 C408.253,35.024 464.38,53.27 503.223,87.79 C547.132,126.812 569.396,185.933 569.396,263.512 C569.396,417.26 494.657,492 340.909,492 C328.96,492 65.726,492 35,492 C35,460.646 35,66.377 35,35.024 C65.726,35.024 328.96,35.024 340.909,35.024 Z M347.484,0.024 L0,0.024 L0,527 L347.484,527 L347.484,526.9 C423.387,525.866 483.517,507.01 526.188,470.706 C578.083,426.554 604.396,356.843 604.396,263.512 C604.396,218.898 597.475,178.88 583.826,144.571 C570.768,111.75 551.471,83.844 526.473,61.627 C482.445,22.499 420.642,1.342 347.484,0.14 C347.484,0.139 347.484,0.024 347.484,0.024 Z" id="Fill-4" fill="#0A0B09" fill-rule="nonzero" mask="url(#mask-4)"></path>
                </g>
                <g id="Fill-2-Clipped">
                    <mask id="mask-6" fill="white">
                        <use xlink:href="#path-5"></use>
                    </mask>
                    <g id="path-1"></g>
                    <path d="M171.345,216.243 C171.345,246.519 146.798,271.077 116.522,271.077 C86.247,271.077 61.699,246.519 61.699,216.243 C61.699,185.967 86.247,161.42 116.522,161.42 C146.798,161.42 171.345,185.967 171.345,216.243" id="Fill-2" fill="#0A0B09" fill-rule="nonzero" mask="url(#mask-6)"></path>
                </g>
                <polygon id="Fill-1" fill="#0A0B09" fill-rule="nonzero" points="67.182 457.464 164.033 457.464 164.033 296.647 67.182 296.647"></polygon>
            </g>
            <path d="M331.349,457.644 L208.5,457.644 L208.5,77.633 L331.349,77.633 L326.391,77.633 C428.843,77.633 537.896,118.066 537.896,268.138 C537.896,426.791 428.843,457.644 326.391,457.644 L331.349,457.644" id="Fill-6" fill="#B9215E" fill-rule="nonzero"></path>
            <path d="M205.763,191.229 L205.763,251.666 L219.576,251.666 C224.742,251.666 228.471,251.376 230.763,250.795 C233.763,250.048 236.252,248.782 238.232,246.998 C240.21,245.214 241.826,242.278 243.076,238.191 C244.326,234.104 244.951,228.533 244.951,221.479 C244.951,214.425 244.326,209.01 243.076,205.233 C241.826,201.458 240.076,198.512 237.826,196.396 C235.576,194.279 232.721,192.848 229.263,192.1 C226.679,191.52 221.617,191.229 214.076,191.229 L205.763,191.229 Z M187.326,175.729 L221.055,175.729 C228.662,175.729 234.46,176.311 238.451,177.475 C243.812,179.055 248.405,181.862 252.229,185.896 C256.053,189.929 258.962,194.867 260.958,200.709 C262.953,206.551 263.951,213.755 263.951,222.32 C263.951,229.847 263.015,236.333 261.145,241.78 C258.859,248.434 255.596,253.818 251.357,257.935 C248.156,261.054 243.833,263.486 238.388,265.232 C234.314,266.522 228.87,267.166 222.053,267.166 L187.326,267.166 L187.326,175.729 Z" id="Fill-7" fill="#FFFFFE" fill-rule="nonzero"></path>
            <path d="M221.055,178.229 C228.389,178.229 234.006,178.782 237.75,179.875 C242.651,181.319 246.915,183.924 250.415,187.616 C253.971,191.367 256.722,196.044 258.592,201.517 C260.489,207.072 261.451,214.071 261.451,222.32 C261.451,229.534 260.552,235.808 258.78,240.968 C256.634,247.215 253.55,252.32 249.615,256.141 C246.705,258.977 242.672,261.233 237.625,262.852 C233.823,264.055 228.581,264.666 222.053,264.666 C222.053,264.666 194.132,264.666 189.826,264.666 C189.826,260.069 189.826,182.826 189.826,178.229 C194.112,178.229 221.055,178.229 221.055,178.229 Z M184.826,173.229 L184.826,269.666 L222.053,269.666 C229.093,269.666 234.843,268.976 239.142,267.616 C244.942,265.756 249.636,263.103 253.102,259.725 C257.603,255.355 261.105,249.59 263.509,242.593 C265.461,236.908 266.451,230.087 266.451,222.32 C266.451,213.52 265.398,205.977 263.323,199.901 C261.22,193.742 258.098,188.452 254.043,184.175 C249.929,179.837 244.921,176.775 239.157,175.077 C234.893,173.833 228.973,173.229 221.055,173.229 L184.826,173.229 Z" id="Fill-8" fill="#FFFFFE" fill-rule="nonzero"></path>
            <path d="M214.076,193.729 C223.192,193.729 227.069,194.17 228.715,194.539 C231.727,195.191 234.209,196.426 236.113,198.217 C238.046,200.035 239.59,202.66 240.703,206.019 C241.862,209.524 242.451,214.725 242.451,221.479 C242.451,228.252 241.856,233.628 240.685,237.46 C239.576,241.087 238.187,243.672 236.558,245.142 C234.896,246.64 232.743,247.726 230.159,248.369 C228.069,248.899 224.512,249.166 219.576,249.166 C219.576,249.166 211.617,249.166 208.263,249.166 C208.263,244.77 208.263,198.125 208.263,193.729 C210.708,193.729 214.076,193.729 214.076,193.729 Z M203.263,188.729 L203.263,254.166 L219.576,254.166 C225.001,254.166 228.862,253.856 231.377,253.218 C234.755,252.378 237.627,250.908 239.906,248.855 C242.25,246.741 244.069,243.492 245.466,238.921 C246.802,234.556 247.451,228.85 247.451,221.479 C247.451,214.088 246.796,208.517 245.449,204.448 C244.073,200.291 242.084,196.969 239.539,194.575 C236.964,192.153 233.685,190.499 229.792,189.656 C227.018,189.033 221.871,188.729 214.076,188.729 L203.263,188.729 Z" id="Fill-9" fill="#FFFFFE" fill-rule="nonzero"></path>
            <polyline id="Fill-10" fill="#FFFFFE" fill-rule="nonzero" points="284.812 267.166 284.812 175.729 352.5 175.729 352.5 191.229 303.25 191.229 303.25 211.479 349.062 211.479 349.062 226.979 303.25 226.979 303.25 251.666 354.25 251.666 354.25 267.166 284.812 267.166"></polyline>
            <path d="M350,178.229 C350,181.069 350,185.888 350,188.729 C345.495,188.729 300.75,188.729 300.75,188.729 L300.75,213.979 C300.75,213.979 342.093,213.979 346.562,213.979 C346.562,216.819 346.562,221.638 346.562,224.479 C342.093,224.479 300.75,224.479 300.75,224.479 L300.75,254.166 C300.75,254.166 347.228,254.166 351.75,254.166 C351.75,257.007 351.75,261.825 351.75,264.666 C347.277,264.666 291.785,264.666 287.312,264.666 C287.312,260.069 287.312,182.826 287.312,178.229 C291.772,178.229 345.54,178.229 350,178.229 Z M282.312,173.229 L282.312,269.666 L356.75,269.666 L356.75,249.166 C356.75,249.166 310.271,249.166 305.75,249.166 C305.75,245.583 305.75,233.062 305.75,229.479 C310.218,229.479 351.562,229.479 351.562,229.479 L351.562,208.979 C351.562,208.979 310.218,208.979 305.75,208.979 C305.75,205.678 305.75,197.029 305.75,193.729 C310.254,193.729 355,193.729 355,193.729 L355,173.229 L282.312,173.229 Z" id="Fill-11" fill="#FFFFFE" fill-rule="nonzero"></path>
            <path d="M423.512,230.916 L410.908,197.041 L398.557,230.916 L423.512,230.916 Z M457.501,267.166 L437.416,267.166 L429.437,246.416 L392.907,246.416 L385.339,267.166 L365.751,267.166 L401.284,175.729 L420.935,175.729 L457.501,267.166 Z" id="Fill-12" fill="#FFFFFE" fill-rule="nonzero"></path>
            <path d="M419.243,178.229 C420.411,181.149 451.314,258.427 453.809,264.666 C449.406,264.666 441.427,264.666 439.132,264.666 C438.083,261.937 431.154,243.916 431.154,243.916 L391.158,243.916 C391.158,243.916 384.606,261.879 383.59,264.666 C381.283,264.666 373.709,264.666 369.405,264.666 C371.814,258.467 401.843,181.191 402.995,178.229 C405.577,178.229 416.684,178.229 419.243,178.229 Z M399.573,173.229 L362.098,269.666 L387.088,269.666 C387.088,269.666 393.64,251.703 394.656,248.916 C397.671,248.916 424.757,248.916 427.72,248.916 C428.769,251.646 435.699,269.666 435.699,269.666 L461.194,269.666 L422.627,173.229 L399.573,173.229 Z" id="Fill-13" fill="#FFFFFE" fill-rule="nonzero"></path>
            <path d="M410.931,204.274 C413.671,211.638 418.304,224.088 419.915,228.416 C415.526,228.416 406.493,228.416 402.129,228.416 C403.701,224.106 408.242,211.652 410.931,204.274 Z M394.985,233.416 L427.11,233.416 L410.884,189.808 L394.985,233.416 Z" id="Fill-14" fill="#FFFFFE" fill-rule="nonzero"></path>
            <polyline id="Fill-15" fill="#FFFFFE" fill-rule="nonzero" points="472.925 267.166 472.925 176.479 491.363 176.479 491.363 251.666 537.3 251.666 537.3 267.166 472.925 267.166"></polyline>
            <path d="M488.863,178.979 C488.863,183.651 488.863,254.166 488.863,254.166 C488.863,254.166 530.33,254.166 534.8,254.166 C534.8,257.007 534.8,261.825 534.8,264.666 C530.368,264.666 479.858,264.666 475.425,264.666 C475.425,260.072 475.425,183.573 475.425,178.979 C478.576,178.979 485.712,178.979 488.863,178.979 Z M470.425,173.979 L470.425,269.666 L539.8,269.666 L539.8,249.166 C539.8,249.166 498.333,249.166 493.863,249.166 C493.863,244.493 493.863,173.979 493.863,173.979 L470.425,173.979 Z" id="Fill-16" fill="#FFFFFE" fill-rule="nonzero"></path>
        </g>
    </g>
</svg>