<?xml version="1.0" encoding="UTF-8"?>
<svg width="15px" height="17px" viewBox="0 0 15 17" version="1.1" xmlns="http://www.w3.org/2000/svg" xmlns:xlink="http://www.w3.org/1999/xlink">
    <!-- Generator: Sketch 50.2 (55047) - http://www.bohemiancoding.com/sketch -->
    <title>Fill 561</title>
    <desc>Created with Sketch.</desc>
    <defs></defs>
    <g id="Page-1" stroke="none" stroke-width="1" fill="none" fill-rule="evenodd">
        <g id="Fill-561" fill="#231F20">
            <path d="M14.6052632,2.31818182 L10.6578947,2.31818182 L10.6578947,1.46122727 C10.6578947,0.751090909 9.92605263,0 9.23447368,0 L5.56026316,0 C4.83157895,0 4.34210526,0.755727273 4.34210526,1.46122727 L4.34210526,2.31818182 L0.394736842,2.31818182 C0.176842105,2.31818182 0,2.49127273 0,2.70454545 C0,2.91781818 0.176842105,3.09090909 0.394736842,3.09090909 L1.55526316,3.09090909 L2.38657895,15.7288636 C2.38657895,16.4181364 2.95894737,17 3.63789474,17 L11.3463158,17 C12.0244737,17 12.5976316,16.4181364 12.5968421,15.7535909 L13.4289474,3.09090909 L14.6052632,3.09090909 C14.8231579,3.09090909 15,2.91781818 15,2.70454545 C15,2.49127273 14.8231579,2.31818182 14.6052632,2.31818182 L14.6052632,2.31818182 Z M10.3886842,5.44309091 L9.66315789,13.9415455 C9.64657895,14.144 9.47368421,14.2962273 9.27078947,14.2962273 L9.23684211,14.2946818 C9.02052632,14.2769091 8.85868421,14.0899091 8.87684211,13.8774091 L9.60236842,5.37895455 C9.62131579,5.16568182 9.82421053,5.00804545 10.0286842,5.02581818 C10.2457895,5.04359091 10.4076316,5.23059091 10.3886842,5.44309091 L10.3886842,5.44309091 Z M6.10657895,13.8774091 C6.12473684,14.0906818 5.96289474,14.2769091 5.74578947,14.2946818 L5.71184211,14.2962273 C5.50894737,14.2962273 5.33684211,14.144 5.31947368,13.9415455 L4.59631579,5.44309091 C4.57736842,5.23059091 4.73921053,5.04359091 4.95552632,5.02581818 C5.16710526,5.00263636 5.36368421,5.16490909 5.38263158,5.37895455 L6.10657895,13.8774091 L6.10657895,13.8774091 Z M5.13157895,1.46122727 C5.13157895,1.13281818 5.35578947,0.772727273 5.56026316,0.772727273 L9.23447368,0.772727273 C9.495,0.772727273 9.86842105,1.17763636 9.86842105,1.46122727 L9.86842105,2.31818182 L5.13157895,2.31818182 L5.13157895,1.46122727 L5.13157895,1.46122727 Z"></path>
        </g>
    </g>
</svg>